<svg width="40" height="40" viewBox="0 0 40 40" fill="none" xmlns="http://www.w3.org/2000/svg">
<path d="M22.8375 27.0013C22.6881 27.0018 22.5405 26.9688 22.4055 26.9048C22.2705 26.8407 22.1516 26.7473 22.0575 26.6313L17.2275 20.6313C17.0804 20.4523 17 20.2279 17 19.9963C17 19.7646 17.0804 19.5402 17.2275 19.3613L22.2275 13.3613C22.3972 13.157 22.6411 13.0286 22.9056 13.0042C23.17 12.9799 23.4333 13.0615 23.6375 13.2313C23.8417 13.401 23.9701 13.6449 23.9945 13.9093C24.0189 14.1738 23.9372 14.437 23.7675 14.6413L19.2975 20.0013L23.6175 25.3613C23.7398 25.508 23.8174 25.6868 23.8413 25.8763C23.8652 26.0659 23.8343 26.2583 23.7522 26.4308C23.6702 26.6034 23.5404 26.7488 23.3783 26.8499C23.2162 26.9509 23.0285 27.0035 22.8375 27.0013Z" fill="#F8F8F8"/>
</svg>
